<?xml version="1.0" encoding="iso-8859-1"?>
<!-- Uploaded to: SVG Repo, www.svgrepo.com, Generator: SVG Repo Mixer Tools -->
<svg fill="#000000" height="800px" width="800px" version="1.1" id="Layer_1" xmlns="http://www.w3.org/2000/svg" xmlns:xlink="http://www.w3.org/1999/xlink" 
	 viewBox="0 0 512 512" xml:space="preserve">
<g>
	<g>
		<g>
			<path d="M503.096,189.791c-17.755-66.262-60.031-121.518-119.041-155.588C345.389,11.879,301.35,0.08,256.7,0.08
				c-91.706,0-176.962,48.994-222.499,127.865C0.133,186.954-8.852,255.946,8.904,322.208
				c17.755,66.265,60.033,121.519,119.041,155.587c8.209,4.74,16.663,9.001,25.313,12.78h-3.97c-5.894,0-10.671,4.779-10.671,10.671
				s4.778,10.671,10.671,10.671l105.883,0.001c0.042,0,0.084,0.001,0.127,0.001c0.042,0,0.083-0.001,0.125-0.001l107.288,0.001
				c5.893,0,10.671-4.779,10.671-10.671s-4.778-10.671-10.671-10.671h-4.758c49.666-21.555,92.118-58.5,119.844-106.521
				C511.867,325.046,520.852,256.055,503.096,189.791z M459.315,373.384c-41.715,72.25-119.832,117.148-203.891,117.192h-0.252
				c-40.865-0.021-81.165-10.831-116.555-31.264c-54.073-31.218-92.817-81.87-109.096-142.626
				c-16.281-60.758-8.054-123.996,23.165-178.069C94.421,66.329,172.596,21.424,256.702,21.424
				c40.909,0,81.257,10.811,116.683,31.264C485.491,117.412,524.039,261.277,459.315,373.384z"/>
			<path d="M117.274,245.328h117.381c5.893,0,10.671-4.778,10.671-10.671V117.275c0-5.893-4.779-10.671-10.671-10.671H117.274
				c-5.893,0-10.671,4.779-10.671,10.671v117.381C106.603,240.55,111.382,245.328,117.274,245.328z M127.946,127.947h96.039v96.039
				h-96.039V127.947z"/>
			<path d="M191.973,149.287h-32.014c-5.894,0-10.671,4.778-10.671,10.671v32.013c0,5.894,4.778,10.671,10.671,10.671h32.014
				c5.893,0,10.671-4.778,10.671-10.671v-32.013C202.644,154.066,197.866,149.287,191.973,149.287z M181.301,181.3H170.63v-10.67
				h10.671V181.3z"/>
			<path d="M320.026,202.643h32.015c5.893,0,10.671-4.778,10.671-10.671v-32.013c0-5.894-4.779-10.671-10.671-10.671h-32.015
				c-5.893,0-10.671,4.778-10.671,10.671v32.013C309.355,197.865,314.133,202.643,320.026,202.643z M330.698,170.63h10.672v10.67
				h-10.672V170.63z"/>
			<path d="M191.973,309.356h-32.014c-5.894,0-10.671,4.778-10.671,10.671v32.012c0,5.893,4.778,10.671,10.671,10.671h32.014
				c5.893,0,10.671-4.779,10.671-10.671v-32.012C202.644,314.134,197.866,309.356,191.973,309.356z M181.301,341.368H170.63v-10.669
				h10.671V341.368z"/>
			<path d="M394.724,266.673h-41.618c-5.893,0-10.671,4.779-10.671,10.671s4.779,10.671,10.671,10.671h30.947v30.943
				c0,5.893,4.779,10.671,10.671,10.671s10.671-4.779,10.671-10.671v-41.614C405.396,271.451,400.618,266.673,394.724,266.673z"/>
			<path d="M394.724,342.435c-5.893,0-10.671,4.778-10.671,10.671v30.949h-96.039v-13.873c0-5.893-4.779-10.671-10.671-10.671
				c-5.894,0-10.671,4.779-10.671,10.671v24.544c0,5.893,4.778,10.671,10.671,10.671h117.381c5.893,0,10.671-4.779,10.671-10.671
				v-41.62C405.396,347.212,400.618,342.435,394.724,342.435z"/>
			<path d="M318.959,266.673h-41.616c-5.894,0-10.671,4.779-10.671,10.671v58.271c0,0.07,0.01,0.139,0.011,0.209
				c-0.001,0.07-0.011,0.139-0.011,0.209c0,5.893,4.778,10.671,10.671,10.671h21.343c5.893,0,10.671-4.779,10.671-10.671
				c0-5.894-4.779-10.671-10.671-10.671h-10.671v-37.347h30.945c5.893,0,10.671-4.779,10.671-10.671
				C329.63,271.451,324.853,266.673,318.959,266.673z"/>
			<path d="M322.16,336.034c0,5.893,4.779,10.671,10.671,10.671h6.402c5.893,0,10.671-4.779,10.671-10.671
				c0-5.894-4.779-10.671-10.671-10.671h-6.402C326.939,325.363,322.16,330.141,322.16,336.034z"/>
			<path d="M206.287,441.538c-26.27-7.04-50.309-19.522-70.866-36.141h99.236c5.893,0,10.671-4.779,10.671-10.671V277.344
				c0-5.893-4.779-10.671-10.671-10.671H117.274c-5.893,0-10.671,4.779-10.671,10.671v99.237
				c-16.618-20.557-29.101-44.596-36.141-70.865c-1.526-5.692-7.38-9.074-13.069-7.546c-5.693,1.526-9.072,7.377-7.546,13.069
				c19.672,73.413,77.498,131.24,150.914,150.914c0.925,0.248,1.855,0.367,2.769,0.367c4.711,0,9.024-3.145,10.301-7.912
				C215.358,448.915,211.978,443.063,206.287,441.538z M127.946,288.015h96.039v96.039h-96.039V288.015z"/>
			<path d="M311.239,49.846c-5.688-1.526-11.543,1.853-13.069,7.545c-1.526,5.693,1.852,11.544,7.546,13.07
				c26.272,7.041,50.311,19.524,70.87,36.144h-99.243c-5.894,0-10.671,4.779-10.671,10.671v117.381
				c0,5.894,4.778,10.671,10.671,10.671h117.381c5.893,0,10.671-4.778,10.671-10.671v-99.242
				c16.62,20.558,29.102,44.598,36.141,70.867c1.277,4.768,5.589,7.913,10.301,7.913c0.913,0,1.844-0.118,2.768-0.367
				c5.693-1.525,9.072-7.376,7.546-13.069C442.483,127.346,384.657,69.518,311.239,49.846z M384.053,223.985h-96.039v-96.039h96.039
				V223.985z"/>
			<path d="M249.624,447.976c-2.706-0.093-5.396-0.238-7.995-0.432c-5.887-0.445-10.999,3.967-11.44,9.843
				c-0.441,5.878,3.967,10.999,9.843,11.44c2.888,0.217,5.869,0.378,8.865,0.48c0.124,0.004,0.247,0.006,0.37,0.006
				c5.725,0,10.462-4.542,10.658-10.307C260.127,453.114,255.514,448.177,249.624,447.976z"/>
			<path d="M271.181,64.486c5.531,0,10.209-4.268,10.63-9.874c0.441-5.877-3.967-10.999-9.843-11.44
				c-2.871-0.214-5.851-0.377-8.859-0.481c-5.91-0.205-10.83,4.406-11.035,10.296c-0.204,5.891,4.405,10.83,10.295,11.034
				c2.723,0.094,5.416,0.241,8.002,0.434C270.644,64.475,270.914,64.486,271.181,64.486z"/>
		</g>
	</g>
</g>
</svg>