<?xml version="1.0" standalone="no"?>
<!DOCTYPE svg PUBLIC "-//W3C//DTD SVG 20010904//EN"
 "http://www.w3.org/TR/2001/REC-SVG-20010904/DTD/svg10.dtd">
<svg version="1.0" xmlns="http://www.w3.org/2000/svg"
 width="200.000000pt" height="200.000000pt" viewBox="0 0 200.000000 200.000000"
 preserveAspectRatio="xMidYMid meet">
<metadata>
Created by potrace 1.10, written by Peter Selinger 2001-2011
</metadata>
<g transform="translate(0.000000,200.000000) scale(0.100000,-0.100000)"
fill="#000000" stroke="none">
<path d="M974 1452 c-61 -29 -87 -67 -81 -119 6 -58 45 -106 129 -160 71 -46
88 -50 69 -15 -16 30 -13 98 4 132 27 53 111 76 181 50 39 -15 106 -71 101
-84 -3 -7 4 -13 14 -13 19 -2 18 0 -3 29 -41 59 -130 137 -184 164 -74 36
-172 43 -230 16z m192 -32 c45 -13 55 -35 17 -38 -13 -1 -34 -7 -46 -14 -12
-7 -25 -11 -29 -10 -4 1 -15 -12 -25 -28 -9 -17 -21 -30 -25 -30 -4 0 -4 -7
-1 -17 4 -10 2 -14 -5 -10 -7 5 -9 -7 -7 -37 2 -43 2 -43 -17 -24 -10 10 -16
23 -13 28 4 6 1 10 -4 10 -6 0 -11 -8 -11 -17 -1 -17 -2 -16 -11 1 -6 10 -20
27 -30 37 -11 11 -19 26 -19 34 0 8 -4 15 -9 15 -5 0 -8 11 -7 25 1 31 4 31
17 3 8 -20 9 -20 5 7 -3 17 -1 37 5 45 5 8 9 11 9 6 0 -4 10 -2 23 7 41 27
100 29 183 7z"/>
<path d="M805 1389 c-171 -157 -105 -367 153 -490 48 -23 99 -50 114 -61 16
-10 33 -16 38 -13 6 4 9 3 8 -2 -1 -4 12 -30 30 -57 36 -56 41 -100 17 -146
-22 -43 -5 -37 55 17 66 59 90 109 90 188 0 120 -61 195 -222 276 -185 92
-240 147 -240 238 0 26 5 58 11 70 19 34 -4 26 -54 -20z m44 -161 c6 -16 18
-28 26 -28 9 0 13 -4 10 -10 -3 -5 1 -10 9 -10 9 0 16 -4 16 -10 0 -5 7 -10
16 -10 8 0 13 -4 9 -9 -3 -5 -1 -12 5 -16 5 -3 10 -1 10 5 0 6 9 3 19 -7 26
-24 86 -59 77 -44 -10 16 0 14 17 -3 8 -8 33 -25 55 -38 56 -31 144 -118 138
-134 -3 -8 -1 -14 4 -14 6 0 9 -3 8 -7 -1 -5 2 -25 7 -46 9 -45 -18 -127 -41
-127 -9 0 -13 -4 -10 -9 7 -11 -21 -8 -31 4 -5 4 -2 5 6 0 11 -6 13 -4 8 9 -4
10 -7 24 -7 32 0 9 -4 13 -9 9 -5 -3 -12 4 -16 14 -3 11 -19 31 -35 44 -16 14
-26 27 -23 30 3 3 -8 9 -23 13 -16 4 -31 10 -34 13 -14 18 -61 40 -73 35 -8
-3 -18 -1 -22 5 -4 7 0 8 11 4 12 -4 15 -3 10 6 -5 7 -17 11 -27 8 -10 -3 -22
0 -26 5 -3 7 -1 8 5 4 7 -4 12 -2 12 4 0 7 -8 9 -21 5 -24 -8 -60 20 -53 40 3
7 1 16 -5 20 -7 4 -8 0 -4 -11 6 -16 4 -15 -19 2 -14 10 -24 22 -21 27 2 4 -5
7 -15 7 -13 0 -22 9 -26 25 -4 14 -10 25 -15 25 -23 0 -41 144 -22 175 3 6 6
13 7 18 1 4 2 10 3 14 0 3 10 -2 20 -11 18 -17 19 -16 16 16 -4 53 6 54 25 2
10 -27 23 -61 29 -76z"/>
<path d="M917 853 c33 -81 -3 -168 -82 -199 -71 -27 -118 -14 -222 61 -17 13
-23 14 -29 3 -4 -7 -4 -10 1 -6 4 4 38 -21 75 -56 37 -35 94 -76 126 -92 52
-25 70 -29 149 -29 80 0 94 3 131 26 52 34 74 69 74 116 0 45 -37 101 -89 136
-37 24 -136 77 -145 77 -3 0 2 -17 11 -37z m92 -45 c20 -12 40 -28 44 -35 5
-7 12 -11 17 -8 5 3 12 0 16 -6 4 -7 3 -9 -3 -6 -6 4 -13 0 -17 -8 -3 -8 0
-17 6 -21 6 -4 8 -3 4 4 -4 6 1 10 12 9 15 -1 18 -9 17 -48 -1 -26 -6 -54 -13
-62 -6 -7 -9 -17 -5 -21 4 -4 0 -4 -9 -1 -9 4 -18 0 -21 -9 -10 -27 -141 -42
-197 -23 -8 3 -23 8 -32 11 -25 8 -22 23 5 32 12 3 30 13 40 22 9 8 17 12 17
8 0 -4 14 9 31 29 18 20 29 38 25 42 -3 3 -2 11 3 17 6 6 11 23 13 36 2 14 7
31 12 39 6 10 5 12 -2 7 -7 -4 -12 -2 -12 3 0 16 8 14 49 -11z"/>
</g>
</svg>
